# xmcd CD database file
# Copyright (C) 1993-1998 Ti Kan
#
# Track frame offsets:
#	150
#	12605
#	23882
#	40390
#	52460
#	64690
#	74870
#	87020
#	100812
#	112447
#	124595
#	137277
#	151850
#	164950
#	178802
#	192365
#	205534
#	216934
#	226915
#	244287
#
# Disc length: 3385 seconds
#
# Revision: 1
# Processed by: cddbd v1.4b41PL1 Copyright (c) Steve Scherf et al.
# Submitted via: NotifyCDPlayer(CDDB) 1.51.2
#
DISCID=310d3714
DTITLE=John Lee Hooker - Golden Classics
DYEAR=1900
DGENRE=
TTITLE0=Crawlin' Black Spider
TTITLE1=You've Taken My Woman
TTITLE2=Talk To Your Daughter
TTITLE3=I'm A Stranger
TTITLE4=I'm Mad Again
TTITLE5=I Wanna Walk
TTITLE6=Everybody's Rockin
TTITLE7=Time Is Marching
TTITLE8=Boogie Chillen
TTITLE9=Crawlin' King Snake
TTITLE10=Mambo Chillun
TTITLE11=I'm So Worried Baby
TTITLE12=Baby Lee
TTITLE13=The Road Is Rough
TTITLE14=Trouble Blues
TTITLE15=I'm So Excited
TTITLE16=You Talk Too Much
TTITLE17=Run On
TTITLE18=Blues Before Sunrise
TTITLE19=Onions
EXTD=
EXTT0=
EXTT1=
EXTT2=
EXTT3=
EXTT4=
EXTT5=
EXTT6=
EXTT7=
EXTT8=
EXTT9=
EXTT10=
EXTT11=
EXTT12=
EXTT13=
EXTT14=
EXTT15=
EXTT16=
EXTT17=
EXTT18=
EXTT19=
PLAYORDER=
